# xmcd CD database file
#
# Track frame offsets:
#	150
#	16902
#	31518
#	55207
#	74004
#	84085
#	105844
#	124347
#	138117
#	159851
#	185466
#	201297
#	217416
#	233846
#	252682
#	270899
#	287800
#	307986
#	321507
#	336133
#
# Disc length: 4724 seconds
#
# Revision: 7
# Processed by: cddbd v1.5.2PL0 Copyright (c) Steve Scherf et al.
# Submitted via: CDex 1.51
#
DISCID=1b127214
DTITLE=John Denver - A Song's Best Friend: The Very Best Of - CD1
DYEAR=1900
DGENRE=Country
TTITLE0=John Denver - Leaving, On A Jet Plane
TTITLE1=John Denver - Take Me Home, Country Roads
TTITLE2=John Denver - Sunshine On My Shoulders
TTITLE3=John Denver - Poems, Prayers And Promises
TTITLE4=John Denver - The Eagle And The Hawk
TTITLE5=John Denver - Rocky Mountain High
TTITLE6=John Denver - Farewell Andromeda (Welcome To My Morning)
TTITLE7=John Denver - Annie's Song
TTITLE8=John Denver - Back Home Again
TTITLE9=John Denver - Sweet Surrender
TTITLE10=John Denver - Thank God I'm A Country Boy
TTITLE11=John Denver - I'm Sorry
TTITLE12=John Denver - Calypso
TTITLE13=John Denver - Fly Away
TTITLE14=John Denver - Looking For Space
TTITLE15=John Denver - Like A Sad Song
TTITLE16=John Denver - My Sweet Lady
TTITLE17=John Denver - Perhaps Love (Plácido Domingo and John Denver)
TTITLE18=John Denver - Shanghai Breezes
TTITLE19=John Denver - Wild Montana Skies (John Denver and Emmylou Harris)
EXTD=
EXTT0=
EXTT1=
EXTT2=
EXTT3=
EXTT4=
EXTT5=
EXTT6=
EXTT7=
EXTT8=
EXTT9=
EXTT10=
EXTT11=
EXTT12=
EXTT13=
EXTT14=
EXTT15=
EXTT16=
EXTT17=
EXTT18=
EXTT19=
PLAYORDER=
